<?xml version="1.0" encoding="utf-8"?>
<!-- Generator: Adobe Illustrator 28.0.0, SVG Export Plug-In . SVG Version: 6.00 Build 0)  -->
<svg version="1.1" id="Ebene_1" xmlns="http://www.w3.org/2000/svg" xmlns:xlink="http://www.w3.org/1999/xlink" x="0px" y="0px"
	 viewBox="0 0 2048 2048" style="enable-background:new 0 0 2048 2048;" xml:space="preserve">
<style type="text/css">
	.st0{fill:#FCC00F;}
</style>
<path class="st0" d="M934.01,326.58L641.17,1456.22l438.05,264.85l328.61-454.28L934.01,326.58z M926.89,616.28l25.51,268.76
	l-76.48-64.5L926.89,616.28z M856.06,893.25l108.58,85.88L967,1045l-133.75-62.33L856.06,893.25z M816.56,1047.22L977,1123.67
	l15.14,172.67l-256.97,69.75L816.56,1047.22z M765.67,1434l232.42-62.29l20.36,212.9L765.67,1434z M989.56,599l247.07,521.83
	l-215.62-177L989.56,599z M1031.6,1037.6l104.03,83.61l-102.24-44.38L1031.6,1037.6z M1042.11,1154.56l174.22,82.89l-160.22,42.89
	L1042.11,1154.56z M1061.63,1352.52l213.29-58.36L1083.72,1578L1061.63,1352.52z"/>
</svg>
